<?xml version="1.0" encoding="UTF-8"?>
<svg version="1.1" xmlns="http://www.w3.org/2000/svg" width="1024" height="1024">
<path d="M0 0 C337.92 0 675.84 0 1024 0 C1024 337.92 1024 675.84 1024 1024 C686.08 1024 348.16 1024 0 1024 C0 686.08 0 348.16 0 0 Z " fill="#FEFEFE" transform="translate(0,0)"/>
<path d="M0 0 C0.75112061 0.46736572 1.50224121 0.93473145 2.27612305 1.41625977 C15.9949302 10.22007954 15.9949302 10.22007954 18.5625 16.6875 C19.68742762 25.31194507 16.40725922 30.99328034 12.3125 38.4375 C11.72597656 39.54738281 11.13945313 40.65726562 10.53515625 41.80078125 C2.94700899 55.9710068 2.94700899 55.9710068 -4.4375 58.6875 C-7.36172558 59.08726593 -10.2431637 59.10548625 -13.19140625 59.09375 C-14.93579234 59.1134079 -16.68017706 59.13318822 -18.42456055 59.15307617 C-19.78887711 59.16061417 -19.78887711 59.16061417 -21.18075562 59.16830444 C-58.23739305 59.42061417 -94.21201513 63.81204269 -129.4375 75.6875 C-131.15619734 76.24885917 -132.87494671 76.81005906 -134.59375 77.37109375 C-167.08903211 88.17149441 -196.4659192 105.19370883 -224.4375 124.6875 C-223.35670166 124.67178955 -222.27590332 124.6560791 -221.16235352 124.63989258 C-200.38928613 124.36498799 -179.98019573 124.16437643 -159.4375 127.6875 C-158.59525879 127.82671875 -157.75301758 127.9659375 -156.88525391 128.109375 C-91.5056606 139.18327593 -29.53816394 170.92807384 19.25 215.625 C19.87535645 216.193396 20.50071289 216.76179199 21.14501953 217.34741211 C22.65763487 218.75210465 24.11557708 220.21522953 25.5625 221.6875 C25.5625 222.3475 25.5625 223.0075 25.5625 223.6875 C24.83063477 223.9777002 24.09876953 224.26790039 23.34472656 224.56689453 C-8.49965159 237.27197982 -40.07117506 251.74694935 -67.4375 272.6875 C-68.14890137 273.23051758 -68.86030273 273.77353516 -69.59326172 274.33300781 C-84.47519297 285.73126432 -99.33064421 297.23572695 -112.4375 310.6875 C-116.49751806 309.30336176 -119.19134164 307.42471328 -122.421875 304.625 C-128.54086736 299.50193205 -135.02798135 295.06137696 -141.6875 290.6875 C-142.58139435 290.09722519 -142.58139435 290.09722519 -143.49334717 289.49502563 C-156.74607239 280.73458759 -156.74607239 280.73458759 -170.4375 272.6875 C-171.28828125 272.21570313 -172.1390625 271.74390625 -173.015625 271.2578125 C-207.00396366 252.59208553 -242.78393802 240.37245051 -280.4375 231.6875 C-281.39156738 231.46578125 -282.34563477 231.2440625 -283.32861328 231.015625 C-289.33153913 229.65482389 -295.3523249 228.60661499 -301.4375 227.6875 C-303.15453125 227.41679688 -303.15453125 227.41679688 -304.90625 227.140625 C-344.33952402 221.16098919 -385.95759295 221.16799974 -425.4375 226.6875 C-426.80516381 226.8675433 -428.17301089 227.04619854 -429.54101562 227.22363281 C-473.76078383 232.9868414 -520.46644542 242.36629486 -559.9375 264.125 C-564.3583687 266.0986021 -566.65329955 266.40513007 -571.4375 265.6875 C-573.9375 263.875 -573.9375 263.875 -575.4375 260.6875 C-576.13810323 253.16232697 -575.03795468 245.95803752 -573.4375 238.625 C-573.21819824 237.59987305 -572.99889648 236.57474609 -572.77294922 235.51855469 C-570.06341371 223.35051148 -566.3252486 211.52178367 -562.4375 199.6875 C-562.15148926 198.79579102 -561.86547852 197.90408203 -561.57080078 196.98535156 C-550.48304194 162.50924785 -532.38130334 130.72886552 -510.93017578 101.70751953 C-509.6117488 99.92330873 -508.30240003 98.13293139 -506.99609375 96.33984375 C-495.11698438 80.2106058 -481.48516326 65.6669937 -467.39440918 51.46917725 C-466.39864564 50.46537368 -465.40436706 49.46009438 -464.41174316 48.45318604 C-457.77074358 41.72678526 -450.85968213 35.54515072 -443.4375 29.6875 C-442.00122228 28.52614035 -440.5650187 27.36468901 -439.12890625 26.203125 C-422.91612347 13.30271459 -405.70508345 2.42263329 -387.4375 -7.3125 C-386.56254883 -7.7854248 -385.68759766 -8.25834961 -384.78613281 -8.74560547 C-370.65088762 -16.37963156 -356.31849646 -23.25371116 -341.4375 -29.3125 C-340.6448877 -29.63557129 -339.85227539 -29.95864258 -339.03564453 -30.29150391 C-305.28156143 -43.83503179 -268.60677207 -51.24608847 -232.4375 -54.3125 C-231.64923828 -54.38162598 -230.86097656 -54.45075195 -230.04882812 -54.52197266 C-150.51215971 -61.15002836 -67.80381334 -42.27814279 0 0 Z " fill="#EC4342" transform="translate(756.4375,173.3125)"/>
<path d="M0 0 C85.15687714 -1.81330433 173.08829877 21.45063925 237.56396484 79.08251953 C236.13348815 83.39886571 233.99070249 86.17136161 231.00146484 89.57080078 C225.65871676 95.79316093 221.05850036 102.41163978 216.56396484 109.27001953 C216.17488953 109.85923187 215.78581421 110.44844421 215.38494873 111.05551147 C209.11579171 120.54957976 203.10919928 130.14645734 197.56396484 140.08251953 C197.12487793 140.8567627 196.68579102 141.63100586 196.23339844 142.42871094 C184.23405984 163.61796963 173.95475739 185.67653863 163.75146484 207.77001953 C142.3874531 254.02120836 117.18158927 298.55909738 83.56396484 337.08251953 C82.81759766 337.94103516 82.07123047 338.79955078 81.30224609 339.68408203 C72.1600201 350.02448127 62.53800959 359.68098121 51.56396484 368.08251953 C50.53013672 368.88302734 49.49630859 369.68353516 48.43115234 370.50830078 C36.49635573 379.52187026 23.36486632 386.7635681 9.18896484 391.58251953 C8.17527832 391.92911621 8.17527832 391.92911621 7.14111328 392.28271484 C-32.69967912 404.86301297 -76.55070994 390.91791823 -112.43603516 373.08251953 C-113.25765137 372.67984863 -114.07926758 372.27717773 -114.92578125 371.86230469 C-144.87555773 357.07929205 -173.18875841 338.12628181 -197.43603516 315.08251953 C-198.01820801 314.53289551 -198.60038086 313.98327148 -199.20019531 313.41699219 C-208.78259211 304.3114274 -217.18816307 294.81138796 -224.94970703 284.11572266 C-226.36266888 282.18287997 -227.80589921 280.27819304 -229.26416016 278.37939453 C-240.22088904 264.00780876 -248.89982564 248.28260768 -257.43603516 232.39501953 C-257.75745483 231.79783112 -258.07887451 231.2006427 -258.41003418 230.58535767 C-269.50750386 209.91313249 -269.50750386 209.91313249 -268.43603516 203.08251953 C-266.87353516 200.64501953 -266.87353516 200.64501953 -264.43603516 199.08251953 C-258.50264248 198.18238411 -255.4798818 199.92811992 -250.82958984 203.24707031 C-250.0397168 203.83214355 -249.24984375 204.4172168 -248.43603516 205.02001953 C-246.73497473 206.22736073 -245.03182931 207.43176946 -243.32666016 208.63330078 C-242.49199219 209.22578613 -241.65732422 209.81827148 -240.79736328 210.42871094 C-209.25927614 232.51711068 -171.07266552 245.49514615 -133.43603516 252.08251953 C-132.63472168 252.2267334 -131.8334082 252.37094727 -131.0078125 252.51953125 C-115.87286664 255.21753945 -100.82424696 256.49688998 -85.43603516 256.08251953 C-84.47673096 256.06366699 -84.47673096 256.06366699 -83.49804688 256.04443359 C-71.15275982 255.76274835 -59.43846978 253.94679271 -47.43603516 251.08251953 C-46.71061523 250.91268555 -45.98519531 250.74285156 -45.23779297 250.56787109 C-31.55525186 247.26300141 -16.57683353 241.83566625 -5.43603516 233.08251953 C-6.63615234 232.68162109 -7.83626953 232.28072266 -9.07275391 231.86767578 C-43.70088118 220.13284203 -74.66225923 203.62483342 -103.43603516 181.08251953 C-104.47501953 180.27041016 -105.51400391 179.45830078 -106.58447266 178.62158203 C-113.8594713 172.6931127 -120.5278785 166.19190274 -127.18603516 159.58251953 C-128.06155029 158.7163501 -128.93706543 157.85018066 -129.83911133 156.95776367 C-135.79188764 150.97571049 -141.21514117 144.71023349 -146.43603516 138.08251953 C-146.9390918 137.44942871 -147.44214844 136.81633789 -147.96044922 136.1640625 C-165.23014875 114.12740845 -191.43603516 75.91439369 -191.43603516 47.08251953 C-131.43246058 16.34499359 -67.27034704 1.615559 0 0 Z " fill="#427AC5" transform="translate(376.43603515625,435.91748046875)"/>
<path d="M0 0 C2.2032681 2.11995124 3.8425859 4.001061 5.625 6.4375 C6.13861084 7.11272705 6.65222168 7.7879541 7.18139648 8.48364258 C8.80884104 10.64076844 10.40498053 12.81882668 12 15 C12.76352783 16.01803711 12.76352783 16.01803711 13.54248047 17.05664062 C44.85711264 58.80948352 57.50079723 110.32445644 57.3125 161.9375 C57.30976578 163.49162598 57.30976578 163.49162598 57.30697632 165.07714844 C57.26016925 180.88970304 56.8105778 196.39786565 54 212 C53.82839355 212.95551758 53.65678711 213.91103516 53.47998047 214.89550781 C48.37991808 242.19610986 39.90770104 268.53764958 26.97363281 293.13378906 C26.03078802 294.94098706 25.11809647 296.76061764 24.2109375 298.5859375 C11.61150282 323.54035542 -6.24305025 345.45667408 -25 366 C-26.26070312 367.39992188 -26.26070312 367.39992188 -27.546875 368.828125 C-37.68797313 380.05523986 -48.10238341 390.61620689 -60 400 C-61.93939107 401.6018799 -63.87690537 403.20603482 -65.8125 404.8125 C-67.53796195 406.21291034 -69.26662383 407.60939757 -71 409 C-71.57492187 409.46792969 -72.14984375 409.93585938 -72.7421875 410.41796875 C-76.73574236 413.4077382 -80.11594575 413.92247533 -85 414 C-87.89701408 412.80340723 -89.40165939 411.76929507 -91.3125 409.3125 C-93.46738124 402.06426309 -91.43978329 396.9558774 -88.1875 390.5625 C-67.55671465 347.24993993 -60.13061876 298.22046991 -59.75 250.625 C-59.7406543 249.85349609 -59.73130859 249.08199219 -59.72167969 248.28710938 C-59.75871663 241.91105724 -60.27116229 234.72883771 -65 230 C-68.61930698 228.79356434 -71.19231005 228.67731441 -75 229 C-79.38807522 231.54015585 -82.59737738 234.4605578 -85.9375 238.25 C-86.80117188 239.22324219 -87.66484375 240.19648437 -88.5546875 241.19921875 C-89.76511719 242.58560547 -89.76511719 242.58560547 -91 244 C-91.62132812 244.70769531 -92.24265625 245.41539062 -92.8828125 246.14453125 C-94.00091031 247.42124293 -95.11680579 248.69988675 -96.23046875 249.98046875 C-99.77578715 254.02667098 -103.39587813 258.00624334 -107 262 C-107.59965576 262.68199463 -108.19931152 263.36398926 -108.81713867 264.06665039 C-114.89530251 270.92859768 -121.28437298 277.4379286 -127.77514648 283.90551758 C-129.5667595 285.6917467 -131.35293055 287.48329347 -133.13867188 289.27539062 C-138.92471961 295.06479998 -144.75235753 300.70463217 -151 306 C-152.60768373 307.45445517 -154.21239715 308.91220895 -155.8125 310.375 C-161.06221169 315.10533382 -166.4863981 319.5818157 -172 324 C-173.02480469 324.83144531 -174.04960938 325.66289063 -175.10546875 326.51953125 C-224.50432054 366.28210216 -294.50205024 406.34892803 -360 405 C-360 404.01 -360 403.02 -360 402 C-358.15625 400.30078125 -358.15625 400.30078125 -355.5 398.3125 C-344.62986204 389.70346309 -334.74185794 379.6462897 -326.18359375 368.7421875 C-324.13101917 366.1645357 -321.99937584 363.6937158 -319.82250977 361.22216797 C-281.90507004 317.97728198 -255.88726971 264.6081358 -232.3125 212.5625 C-222.68195224 191.36126985 -212.03783408 170.93381816 -200 151 C-199.55060059 150.24541504 -199.10120117 149.49083008 -198.63818359 148.71337891 C-188.91436971 132.39573415 -177.52048232 117.26800449 -165 103 C-164.39027344 102.29101562 -163.78054688 101.58203125 -163.15234375 100.8515625 C-143.69155075 78.30832711 -122.04859492 58.22242783 -97 42 C-96.22736816 41.49645996 -95.45473633 40.99291992 -94.65869141 40.47412109 C-69.6804037 24.30116484 -43.30974138 11.11054846 -14.8125 2.375 C-14.00514404 2.12693604 -13.19778809 1.87887207 -12.3659668 1.62329102 C-4.03343865 -0.79318668 -4.03343865 -0.79318668 0 0 Z " fill="#F8C341" transform="translate(817,431)"/>
<path d="M0 0 C0 3 0 3 -1.29760742 4.65405273 C-1.89420166 5.24130127 -2.4907959 5.8285498 -3.10546875 6.43359375 C-3.75966797 7.08263672 -4.41386719 7.73167969 -5.08789062 8.40039062 C-6.12719727 9.40875977 -6.12719727 9.40875977 -7.1875 10.4375 C-7.86103516 11.10587891 -8.53457031 11.77425781 -9.22851562 12.46289062 C-12.67423095 15.85481917 -16.14235472 19.07118582 -20 22 C-20.66 21.67 -21.32 21.34 -22 21 C-21.26680542 20.31224487 -21.26680542 20.31224487 -20.51879883 19.6105957 C-18.28257715 17.51206915 -16.04753026 15.4122954 -13.8125 13.3125 C-13.04357422 12.59126953 -12.27464844 11.87003906 -11.48242188 11.12695312 C-7.59534182 7.47343152 -3.74211077 3.80210453 0 0 Z " fill="#F7B61F" transform="translate(481,811)"/>
<path d="M0 0 C0 3 0 3 -1.34521484 4.60986328 C-1.96090332 5.17431152 -2.5765918 5.73875977 -3.2109375 6.3203125 C-4.21253906 7.24650391 -4.21253906 7.24650391 -5.234375 8.19140625 C-5.94078125 8.82949219 -6.6471875 9.46757812 -7.375 10.125 C-8.42300781 11.09373047 -8.42300781 11.09373047 -9.4921875 12.08203125 C-14.67795939 16.83897969 -14.67795939 16.83897969 -17 18 C-15.40425499 14.02941094 -12.63330816 11.37060046 -9.625 8.4375 C-9.14289062 7.95603516 -8.66078125 7.47457031 -8.1640625 6.97851562 C-5.58143857 4.4274727 -2.96958619 2.08996942 0 0 Z " fill="#F7BB2C" transform="translate(683,502)"/>
<path d="M0 0 C0.33 1.32 0.66 2.64 1 4 C-1.68841859 6.25245881 -3.64641875 7.88213958 -7 9 C-5.44499019 5.18315774 -2.96404505 2.80804268 0 0 Z " fill="#EA3230" transform="translate(270,245)"/>
<path d="M0 0 C0 3.75586417 -1.14246188 5.76650772 -3 9 C-3.99 9.66 -4.98 10.32 -6 11 C-5.55530671 5.96014269 -3.28656638 3.62365012 0 0 Z " fill="#EA3231" transform="translate(257,260)"/>
<path d="M0 0 C1.6396875 0.0928125 1.6396875 0.0928125 3.3125 0.1875 C2.9825 1.1775 2.6525 2.1675 2.3125 3.1875 C-0.6575 3.1875 -3.6275 3.1875 -6.6875 3.1875 C-3.6875 0.1875 -3.6875 0.1875 0 0 Z " fill="#ED4E4D" transform="translate(527.6875,118.8125)"/>
<path d="M0 0 C3.125 -0.1875 3.125 -0.1875 6 0 C6 0.99 6 1.98 6 3 C3.36 3 0.72 3 -2 3 C-1.34 2.01 -0.68 1.02 0 0 Z " fill="#4C82C9" transform="translate(338,438)"/>
<path d="M0 0 C0.99 0.33 1.98 0.66 3 1 C-0.465 3.97 -0.465 3.97 -4 7 C-4.66 6.67 -5.32 6.34 -6 6 C-4.02 4.02 -2.04 2.04 0 0 Z " fill="#F7BC2F" transform="translate(465,826)"/>
<path d="M0 0 C0.33 1.32 0.66 2.64 1 4 C-0.98 5.32 -2.96 6.64 -5 8 C-3.8141763 4.62496331 -2.72426311 2.35277269 0 0 Z " fill="#F8BB2C" transform="translate(637,553)"/>
<path d="M0 0 C-0.56371414 3.26954202 -1.49962266 4.82575883 -4 7 C-4.33 5.35 -4.66 3.7 -5 2 C-2 0 -2 0 0 0 Z " fill="#2D6CBF" transform="translate(190,481)"/>
<path d="M0 0 C0 0.99 0 1.98 0 3 C-3.3 2.67 -6.6 2.34 -10 2 C-10 1.67 -10 1.34 -10 1 C-6.59437148 0.22157062 -3.49234244 -0.09978121 0 0 Z " fill="#EE4E4E" transform="translate(310,400)"/>
</svg>
